<?xml version="1.0" encoding="utf-8"?>
<!-- Generator: Adobe Illustrator 16.0.4, SVG Export Plug-In . SVG Version: 6.00 Build 0)  -->
<!DOCTYPE svg PUBLIC "-//W3C//DTD SVG 1.1//EN" "http://www.w3.org/Graphics/SVG/1.1/DTD/svg11.dtd">
<svg version="1.1" id="Layer_1" xmlns:sketch="http://www.bohemiancoding.com/sketch/ns"
	 xmlns="http://www.w3.org/2000/svg" xmlns:xlink="http://www.w3.org/1999/xlink" x="0px" y="0px" width="97px" height="57px"
	 viewBox="0 0 97 57" enable-background="new 0 0 97 57" xml:space="preserve">
<title>hey</title>
<desc>Created with Sketch Beta.</desc>
<g id="Page-1" sketch:type="MSPage">
	<g id="WINNER" transform="translate(-313.000000, -4426.000000)" sketch:type="MSArtboardGroup">
		<g id="Group" transform="translate(-52.000000, 4119.000000)" sketch:type="MSLayerGroup">
			
				<g id="Our-free-plan-works--_x2B_-Requests-per-month-_x2B_-_x24_0" transform="translate(254.000000, 264.000000)" sketch:type="MSShapeGroup">
				<g id="hey" transform="translate(111.000000, 43.000000)">
					<path id="_x39_" display="none" fill="#2D3238" d="M56.32,8.68c3.387,4.853,5.08,11.493,5.08,19.92
						c0,8.853-1.721,15.6-5.16,20.24c-3.44,4.641-8.227,6.96-14.36,6.96c-4.586,0-8.373-1.013-11.36-3.04
						c-2.987-2.026-5.067-4.88-6.24-8.56l4-2.08c0.747,3.146,2.2,5.6,4.36,7.36c2.16,1.76,5.213,2.64,9.16,2.64
						c5.653,0,9.733-2.267,12.24-6.8s3.76-10.533,3.76-18c0-1.333-0.159-3.173-0.479-5.52h-0.24
						c-0.213,2.827-1.094,5.213-2.641,7.16c-1.546,1.946-3.492,3.399-5.839,4.36c-2.347,0.96-4.747,1.439-7.2,1.439
						c-5.227,0-9.413-1.506-12.56-4.52c-3.146-3.014-4.72-7.08-4.72-12.2c0-5.067,1.6-9.106,4.8-12.12
						c3.2-3.013,7.493-4.52,12.88-4.52C48.093,1.4,52.934,3.827,56.32,8.68L56.32,8.68z M31.92,8.68
						c-2.427,2.347-3.64,5.52-3.64,9.52c0,3.893,1.2,7,3.6,9.32S37.56,31,41.72,31c2.613,0,4.946-0.587,7-1.76
						c2.053-1.174,3.653-2.733,4.799-4.68s1.721-4.067,1.721-6.36c0-3.84-1.24-6.974-3.721-9.4c-2.479-2.427-5.693-3.64-9.64-3.64
						C37.667,5.16,34.347,6.333,31.92,8.68L31.92,8.68z"/>
					<path id="_x2F_MO" fill="#2D3238" d="M67.859,56.05h-1.5l4.471-11.925h1.5L67.859,56.05z M84.3,55h-1.47v-5.73l0.105-2.729
						H82.92L79.904,55H78.57l-3.016-8.46H75.54l0.12,2.729V55h-1.485v-9.9h2.386l1.994,5.73l0.69,2.355h0.03l0.705-2.355l1.979-5.73
						h2.34V55z M93.832,45.564c0.705,0.41,1.248,1,1.628,1.771s0.569,1.675,0.569,2.715s-0.189,1.945-0.569,2.716
						c-0.38,0.77-0.923,1.359-1.628,1.77S92.3,55.15,91.35,55.15c-0.949,0-1.774-0.205-2.475-0.615s-1.24-1-1.62-1.77
						c-0.38-0.771-0.569-1.676-0.569-2.716s0.189-1.944,0.569-2.715s0.92-1.36,1.62-1.771c0.7-0.409,1.525-0.614,2.475-0.614
						C92.3,44.95,93.127,45.155,93.832,45.564L93.832,45.564z M89.16,47.32c-0.53,0.65-0.795,1.56-0.795,2.729
						c0,1.171,0.265,2.08,0.795,2.73c0.529,0.649,1.26,0.975,2.189,0.975c0.94,0,1.676-0.325,2.205-0.975
						c0.53-0.65,0.795-1.56,0.795-2.73c0-1.17-0.265-2.079-0.795-2.729c-0.529-0.65-1.265-0.976-2.205-0.976
						C90.42,46.345,89.689,46.67,89.16,47.32L89.16,47.32z"/>
					<path id="_x24_" fill="#2D3238" d="M6.417,17.977c-2.714-0.23-4.539-1.434-5.474-3.611l1.771-1.288
						c0.215,0.782,0.66,1.438,1.334,1.966c0.675,0.529,1.464,0.87,2.369,1.023v-4.784c-1.012-0.215-1.859-0.453-2.542-0.713
						c-0.682-0.26-1.25-0.655-1.702-1.184c-0.452-0.529-0.678-1.23-0.678-2.104c0-1.181,0.441-2.182,1.322-3.002
						c0.882-0.82,2.082-1.299,3.6-1.438V0.612h1.771v2.254c1.181,0.092,2.154,0.383,2.921,0.874c0.767,0.49,1.441,1.211,2.024,2.162
						L11.5,7.397c-0.398-0.828-0.855-1.449-1.369-1.863S8.97,4.867,8.188,4.775v4.853c1.012,0.215,1.859,0.456,2.542,0.725
						s1.25,0.675,1.702,1.219c0.452,0.544,0.678,1.261,0.678,2.151c0,1.196-0.448,2.173-1.345,2.932
						c-0.897,0.759-2.089,1.2-3.577,1.323v2.231H6.417V17.977z M6.417,4.775c-0.859,0.092-1.51,0.341-1.955,0.748
						C4.018,5.929,3.795,6.462,3.795,7.121c0,0.598,0.226,1.054,0.679,1.368c0.452,0.314,1.1,0.571,1.943,0.771V4.775z
						 M10.833,13.883c0-0.613-0.226-1.081-0.679-1.403c-0.452-0.322-1.107-0.59-1.966-0.805v4.416
						C9.951,15.922,10.833,15.187,10.833,13.883L10.833,13.883z"/>
				</g>
			</g>
		</g>
	</g>
</g>
<rect x="19" y="6.95" fill="none" width="48.359" height="52.05"/>
<text transform="matrix(1 0 0 1 24.2759 55.9092)" fill="#353333" font-family="'Helvetica-Light'" font-size="68">0</text>
</svg>
