<?xml version="1.0" encoding="utf-8"?>
<!-- Generator: Adobe Illustrator 16.0.4, SVG Export Plug-In . SVG Version: 6.00 Build 0)  -->
<!DOCTYPE svg PUBLIC "-//W3C//DTD SVG 1.1//EN" "http://www.w3.org/Graphics/SVG/1.1/DTD/svg11.dtd">
<svg version="1.1" id="Layer_1" xmlns:sketch="http://www.bohemiancoding.com/sketch/ns"
	 xmlns="http://www.w3.org/2000/svg" xmlns:xlink="http://www.w3.org/1999/xlink" x="0px" y="0px" width="136px" height="57px"
	 viewBox="0 0 136 57" enable-background="new 0 0 136 57" xml:space="preserve">
<title>ho</title>
<desc>Created with Sketch Beta.</desc>
<g id="Page-1" sketch:type="MSPage">
	<g id="WINNER" transform="translate(-647.000000, -4426.000000)" sketch:type="MSArtboardGroup">
		<g id="Group" transform="translate(-52.000000, 4119.000000)" sketch:type="MSLayerGroup">
			
				<g id="Our-free-plan-works--_x2B_-Requests-per-month-_x2B_-_x24_0" transform="translate(617.000000, 264.000000)" sketch:type="MSShapeGroup">
				<g id="ho" transform="translate(82.000000, 24.000000)">
					<path id="_x34_9" display="none" fill="#2D3238" d="M55.68,58.96H45.52V74h-4V58.96H15.28v-3.04L40.4,21.2h5.12V55.52h10.16
						V58.96z M19.6,55.52h21.92V31.36l0.16-6.8h-0.16c-1.013,1.76-2.48,4.08-4.4,6.96L19.6,55.52z M94.95,27.68
						c3.387,4.853,5.079,11.493,5.079,19.92c0,8.853-1.719,15.6-5.159,20.24c-3.44,4.641-8.227,6.96-14.36,6.96
						c-4.586,0-8.373-1.013-11.359-3.04c-2.987-2.026-5.067-4.88-6.24-8.56l4-2.08c0.747,3.146,2.199,5.6,4.359,7.36
						c2.16,1.76,5.214,2.64,9.16,2.64c5.654,0,9.733-2.267,12.24-6.8s3.76-10.533,3.76-18c0-1.333-0.16-3.173-0.479-5.52h-0.24
						c-0.214,2.827-1.093,5.213-2.64,7.16c-1.547,1.946-3.494,3.399-5.84,4.36c-2.348,0.96-4.747,1.439-7.201,1.439
						c-5.227,0-9.412-1.506-12.559-4.52s-4.72-7.08-4.72-12.2c0-5.067,1.6-9.106,4.8-12.12c3.2-3.013,7.493-4.52,12.88-4.52
						C86.723,20.4,91.563,22.827,94.95,27.68L94.95,27.68z M70.55,27.68c-2.426,2.347-3.64,5.52-3.64,9.52c0,3.893,1.2,7,3.6,9.32
						c2.4,2.32,5.68,3.48,9.84,3.48c2.613,0,4.947-0.587,7-1.76c2.054-1.174,3.654-2.733,4.801-4.68s1.72-4.067,1.72-6.36
						c0-3.84-1.24-6.974-3.72-9.4c-2.48-2.427-5.693-3.64-9.641-3.64C76.297,24.16,72.977,25.333,70.55,27.68L70.55,27.68z"/>
					<path id="_x2F_MO" fill="#2D3238" d="M106.859,75.05h-1.5l4.471-11.925h1.5L106.859,75.05z M123.3,74h-1.47v-5.73l0.105-2.729
						h-0.016L118.904,74h-1.334l-3.016-8.46h-0.015l0.12,2.729V74h-1.485v-9.9h2.386l1.994,5.73l0.69,2.355h0.03l0.705-2.355
						l1.979-5.73h2.34V74z M132.832,64.564c0.705,0.41,1.248,1,1.628,1.771s0.569,1.675,0.569,2.715s-0.189,1.945-0.569,2.716
						c-0.38,0.77-0.923,1.359-1.628,1.77s-1.532,0.615-2.482,0.615c-0.949,0-1.774-0.205-2.475-0.615s-1.24-1-1.62-1.77
						c-0.38-0.771-0.569-1.676-0.569-2.716s0.189-1.944,0.569-2.715s0.92-1.36,1.62-1.771c0.7-0.409,1.525-0.614,2.475-0.614
						C131.3,63.95,132.127,64.155,132.832,64.564L132.832,64.564z M128.16,66.32c-0.53,0.649-0.795,1.56-0.795,2.729
						c0,1.171,0.265,2.08,0.795,2.73c0.529,0.649,1.26,0.975,2.189,0.975c0.94,0,1.676-0.325,2.205-0.975
						c0.53-0.65,0.795-1.56,0.795-2.73c0-1.17-0.265-2.08-0.795-2.729c-0.529-0.65-1.265-0.976-2.205-0.976
						C129.42,65.345,128.689,65.67,128.16,66.32L128.16,66.32z"/>
					<path id="_x24_" fill="#2D3238" d="M6.417,36.977c-2.714-0.23-4.539-1.434-5.474-3.611l1.771-1.288
						c0.215,0.782,0.66,1.438,1.334,1.966c0.675,0.529,1.464,0.87,2.369,1.023v-4.784c-1.012-0.215-1.859-0.453-2.542-0.713
						c-0.682-0.26-1.25-0.655-1.702-1.184c-0.452-0.529-0.678-1.23-0.678-2.104c0-1.181,0.441-2.182,1.322-3.002
						c0.882-0.82,2.082-1.299,3.6-1.438v-2.231h1.771v2.254c1.181,0.092,2.154,0.383,2.921,0.874
						c0.767,0.49,1.441,1.211,2.024,2.162L11.5,26.397c-0.398-0.828-0.855-1.449-1.369-1.863s-1.161-0.667-1.943-0.759v4.853
						c1.012,0.215,1.859,0.456,2.542,0.725s1.25,0.675,1.702,1.219c0.452,0.544,0.678,1.261,0.678,2.151
						c0,1.196-0.448,2.173-1.345,2.932c-0.897,0.759-2.089,1.2-3.577,1.323v2.231H6.417V36.977z M6.417,23.775
						c-0.859,0.092-1.51,0.341-1.955,0.748c-0.444,0.406-0.667,0.939-0.667,1.599c0,0.598,0.226,1.054,0.679,1.368
						c0.452,0.314,1.1,0.571,1.943,0.771V23.775z M10.833,32.883c0-0.613-0.226-1.081-0.679-1.403
						c-0.452-0.322-1.107-0.59-1.966-0.805v4.416C9.951,34.922,10.833,34.187,10.833,32.883L10.833,32.883z"/>
				</g>
			</g>
		</g>
	</g>
</g>
<rect x="17.085" y="5.95" fill="none" width="91.83" height="59.05"/>
<text transform="matrix(1 0 0 1 25.1919 54.9092)" fill="#353333" font-family="'Helvetica-Light'" font-size="68">39</text>
</svg>
